<svg xmlns="http://www.w3.org/2000/svg" width="16" height="16" viewBox="0 0 16 16" fill="none">
  <g clip-path="url(#clip0_10_33)">
    <path d="M12.3671 8.501C12.3471 6.475 14.0191 5.503 14.0941 5.455C13.1541 4.08 11.6901 3.891 11.1681 3.87C9.92206 3.744 8.73706 4.604 8.10406 4.604C7.47306 4.604 6.49706 3.889 5.46406 3.908C4.10606 3.928 2.85406 4.698 2.15406 5.914C0.743056 8.362 1.79306 11.99 3.16806 13.975C3.84006 14.947 4.64106 16.039 5.69306 16C6.70606 15.96 7.08906 15.344 8.31406 15.344C9.53906 15.344 9.88306 16 10.9551 15.979C12.0451 15.959 12.7361 14.988 13.4031 14.013C14.1751 12.885 14.4921 11.794 14.5111 11.738C14.4871 11.727 12.3851 10.922 12.3641 8.502L12.3671 8.501ZM10.3531 2.555C10.9111 1.878 11.2881 0.938 11.1851 0C10.3811 0.033 9.40606 0.536 8.82906 1.212C8.31106 1.812 7.85806 2.769 7.97906 3.688C8.87706 3.758 9.79406 3.232 10.3521 2.556L10.3531 2.555Z" fill="white"/>
  </g>
  <defs>
    <clipPath id="clip0_10_33">
      <rect width="16" height="16" fill="white"/>
    </clipPath>
  </defs>
</svg>